<?xml version="1.0" encoding="utf-8"?><svg viewBox="0 0 80 76" xmlns="http://www.w3.org/2000/svg" xmlns:xlink="http://www.w3.org/1999/xlink"><style>:root>svg{display:none}:root>svg:target{display:block}</style><svg viewBox="0 0 80 76" id="Logo" xmlns="http://www.w3.org/2000/svg"><path d="M.9 70c-.067 0-.1-.033-.1-.1l.04-13.74c0-.053.027-.08.08-.08l3.74-.02c.733-.013 1.4.16 2 .52.613.36 1.1.847 1.46 1.46.36.6.54 1.267.54 2v5.74c0 .773-.187 1.48-.56 2.12a4.253 4.253 0 01-1.5 1.5c-.627.373-1.333.567-2.12.58L.9 70zm2.34-2.46h1.24a1.65 1.65 0 001.24-.52c.347-.347.52-.76.52-1.24v-5.76c0-.427-.16-.793-.48-1.1a1.406 1.406 0 00-1.1-.46l-1.4.02-.02 9.06zM10.314 70c-.054 0-.08-.033-.08-.1l.04-13.74c0-.053.026-.08.08-.08h4.04c.72 0 1.38.18 1.98.54.613.347 1.1.82 1.46 1.42.36.587.54 1.253.54 2 0 .493-.074.94-.22 1.34-.147.387-.32.72-.52 1-.2.267-.38.467-.54.6.72.8 1.08 1.74 1.08 2.82l.02 4.1c0 .067-.034.1-.1.1h-2.26c-.054 0-.08-.02-.08-.06V65.8c0-.48-.174-.893-.52-1.24a1.622 1.622 0 00-1.24-.54h-1.32l-.02 5.88c0 .067-.027.1-.08.1h-2.26zm2.36-8.38h1.72c.413 0 .78-.153 1.1-.46.32-.307.48-.68.48-1.12 0-.427-.16-.793-.48-1.1a1.5 1.5 0 00-1.1-.46h-1.72v3.14zM19.982 70c-.067 0-.1-.033-.1-.1l.02-13.74c0-.053.027-.08.08-.08h2.24c.053 0 .08.027.08.08l.02 13.74c0 .067-.027.1-.08.1h-2.26zm6.34 0c-.054 0-.087-.033-.1-.1l-2.76-13.74c-.014-.053.013-.08.08-.08h2.26c.053 0 .086.027.1.08l1.64 9.16 1.6-9.16c.013-.053.046-.08.1-.08h2.24c.066 0 .093.027.08.08l-2.72 13.74c-.014.067-.047.1-.1.1h-2.42zm6.492 0c-.054 0-.08-.033-.08-.1l.02-13.74c0-.053.026-.08.08-.08h6.42c.053 0 .08.033.08.1v2.24c0 .053-.027.08-.08.08h-4.1v3.12h4.1c.053 0 .08.027.08.08l.02 2.26c0 .053-.027.08-.08.08h-4.12v3.5h4.12c.053 0 .08.033.08.1v2.28c0 .053-.027.08-.08.08h-6.46zm11.367 0c-.054 0-.08-.033-.08-.1l.04-13.74c0-.053.026-.08.08-.08h2.44c.053 0 .1.027.14.08l1.82 2.64 1.82-2.64c.04-.053.086-.08.14-.08h2.46c.053 0 .08.027.08.08l.04 13.74c0 .067-.027.1-.08.1h-2.26c-.054 0-.08-.033-.08-.1l-.02-10.2-2.1 3.04-2.08-3.04-.02 10.2c0 .067-.027.1-.08.1h-2.26zm14.362.2c-.72 0-1.38-.18-1.98-.54a4.373 4.373 0 01-1.42-1.46 3.918 3.918 0 01-.54-2.02l.02-6.34c0-.733.173-1.4.52-2 .36-.6.84-1.08 1.44-1.44a3.74 3.74 0 011.96-.54c.72 0 1.373.18 1.96.54.587.36 1.053.84 1.4 1.44.36.6.54 1.267.54 2l.02 6.34c0 .733-.18 1.407-.54 2.02-.347.6-.82 1.087-1.42 1.46-.587.36-1.24.54-1.96.54zm0-2.42c.4 0 .747-.16 1.04-.48.307-.333.46-.707.46-1.12l-.02-6.34c0-.44-.14-.813-.42-1.12a1.374 1.374 0 00-1.06-.46c-.413 0-.767.153-1.06.46-.293.293-.44.667-.44 1.12v6.34c0 .44.147.82.44 1.14.293.307.647.46 1.06.46zM65.73 70c-.054 0-.08-.033-.08-.1V58.5h-2.6c-.067 0-.1-.033-.1-.1l.02-2.24c0-.053.026-.08.08-.08h7.6c.066 0 .1.027.1.08v2.24c0 .067-.027.1-.08.1h-2.62l.02 11.4c0 .067-.027.1-.08.1h-2.26zm9.258.2c-.72 0-1.38-.18-1.98-.54a4.373 4.373 0 01-1.42-1.46 3.918 3.918 0 01-.54-2.02l.02-6.34c0-.733.174-1.4.52-2 .36-.6.84-1.08 1.44-1.44a3.74 3.74 0 011.96-.54c.72 0 1.374.18 1.96.54.587.36 1.054.84 1.4 1.44.36.6.54 1.267.54 2l.02 6.34c0 .733-.18 1.407-.54 2.02-.346.6-.82 1.087-1.42 1.46-.586.36-1.24.54-1.96.54zm0-2.42c.4 0 .747-.16 1.04-.48.307-.333.46-.707.46-1.12l-.02-6.34c0-.44-.14-.813-.42-1.12a1.374 1.374 0 00-1.06-.46c-.413 0-.766.153-1.06.46-.293.293-.44.667-.44 1.12v6.34c0 .44.147.82.44 1.14.294.307.647.46 1.06.46zM59.044 7.956a2.07 2.07 0 00-2.63-.247c-3.098 2.112-18.636 12.73-20.306 14.4a6.218 6.218 0 000 8.783 6.192 6.192 0 004.392 1.816c1.59 0 3.181-.605 4.392-1.816 1.67-1.67 12.287-17.208 14.399-20.306a2.07 2.07 0 00-.247-2.63zm-17.08 20.008a2.072 2.072 0 01-2.928 0 2.072 2.072 0 010-2.927c.649-.642 5.06-3.788 10.488-7.56-3.773 5.427-6.92 9.838-7.56 10.487z"/><path d="M23.547 36.13l-2.556 1.246a22.25 22.25 0 01-1.395-18.814l2.929 1.405a2.07 2.07 0 001.79-3.733l-2.891-1.387c3.594-5.862 9.812-9.948 17.006-10.611V7.35a2.07 2.07 0 104.14 0V4.234a22.14 22.14 0 017.12 1.875 2.07 2.07 0 001.703-3.773A26.299 26.299 0 0040.5 0c-7.078 0-13.733 2.756-18.738 7.762C16.756 12.767 14 19.422 14 26.5c0 5.23 1.553 10.318 4.49 14.711a2.07 2.07 0 002.629.71l4.244-2.07a2.07 2.07 0 10-1.816-3.722zm41.117-20.523a2.07 2.07 0 10-3.773 1.704 22.181 22.181 0 011.968 9.189c0 3.82-.984 7.55-2.86 10.892l-2.668-1.27a2.07 2.07 0 00-1.78 3.738l4.348 2.07a2.07 2.07 0 002.611-.719C65.448 36.818 67 31.731 67 26.5c0-3.795-.786-7.46-2.336-10.893z"/></svg><svg viewBox="0 0 17 29" id="arrow-next" xmlns="http://www.w3.org/2000/svg"><path d="M15.894 13.632L2.336.237a.818.818 0 00-1.15 0 .794.794 0 000 1.136l12.98 12.824-12.98 12.825a.794.794 0 000 1.136.823.823 0 00.572.238.798.798 0 00.572-.238l13.558-13.395a.793.793 0 00.006-1.131z"/></svg><svg viewBox="0 0 16 29" id="arrow-prev" xmlns="http://www.w3.org/2000/svg"><path d="M1.967 14.192l12.975-12.82a.794.794 0 000-1.136.817.817 0 00-1.15 0L.24 13.627a.794.794 0 000 1.136l13.553 13.385a.823.823 0 00.572.238.798.798 0 00.572-.238.794.794 0 000-1.136l-12.97-12.82z"/></svg><svg viewBox="0 0 30 23" id="header-basket" xmlns="http://www.w3.org/2000/svg"><path d="M29.999 0l-.929 2.5h-2.41l-4.342 15H5.767L0 3.75h21.015l-.705 2.5H3.759L7.43 15h13.035l4.29-15H30zM10.624 18.75a1.876 1.876 0 10.001 3.751 1.876 1.876 0 00-.001-3.751zM19.249 10l-2.375 8.75a1.875 1.875 0 100 3.75 1.875 1.875 0 000-3.75L19.249 10z"/></svg><svg viewBox="0 0 24 22" id="header-heart" xmlns="http://www.w3.org/2000/svg"><path d="M12 8.229c.234-1.12 1.547-6.23 5.382-6.23C19.602 2 22 3.552 22 7.004c0 3.907-3.627 8.47-10 12.629-6.373-4.16-10-8.722-10-12.63C2 3.52 4.369 1.999 6.577 1.999c3.923 0 5.145 5.126 5.423 6.23zM0 7.003C0 11.07 3.06 16.483 12 22c8.94-5.516 12-10.93 12-14.997 0-7.962-9.648-9.028-12-3.737C9.662-1.996 0-1.004 0 7.003z"/></svg><svg viewBox="0 0 26 30" id="header-label" xmlns="http://www.w3.org/2000/svg"><path d="M12.994 0C6.365 0 .969 5.396.969 12.025c0 .755.069 1.516.214 2.258a11.842 11.842 0 00.887 2.774c1.295 3.05 4.144 7.735 10.396 12.754a.854.854 0 001.069 0c6.245-5.018 9.1-9.704 10.396-12.754a11.705 11.705 0 00.887-2.774c.138-.742.214-1.503.214-2.258C25.019 5.396 19.622 0 12.994 0zm10.138 13.987c0 .013-.006.026-.006.038a9.939 9.939 0 01-.057.27v.013a9.993 9.993 0 01-.698 2.05c-.006.007-.006.02-.012.026-1.176 2.786-3.755 7.037-9.365 11.673-5.61-4.636-8.189-8.887-9.365-11.673-.006-.007-.006-.02-.012-.026a10.651 10.651 0 01-.699-2.05v-.012c-.037-.145-.05-.24-.056-.27 0-.013-.006-.026-.006-.045a10.271 10.271 0 01-.19-1.962c0-5.692 4.636-10.327 10.328-10.327 5.692 0 10.327 4.635 10.327 10.327 0 .666-.063 1.327-.189 1.968z"/><path d="M12.994 4.522c-4.207 0-7.635 3.428-7.635 7.635 0 4.208 3.428 7.635 7.635 7.635 4.208 0 7.635-3.427 7.635-7.635 0-4.207-3.427-7.635-7.635-7.635zm0 13.572a5.944 5.944 0 01-5.937-5.937 5.948 5.948 0 015.937-5.937 5.948 5.948 0 015.937 5.937c0 3.27-2.66 5.937-5.937 5.937z"/></svg><svg viewBox="0 0 24 24" id="header-user" xmlns="http://www.w3.org/2000/svg"><path d="M20.823 18.096c-3.44-.794-6.64-1.49-5.09-4.418C20.453 4.766 16.983 0 12 0 6.918 0 3.536 4.949 8.268 13.678c1.597 2.945-1.725 3.641-5.09 4.418C.105 18.806-.01 20.332 0 23l.004 1h23.99l.005-.969c.012-2.688-.092-4.222-3.176-4.935z"/></svg><svg viewBox="0 0 24 22" id="heart" xmlns="http://www.w3.org/2000/svg"><path d="M12 8.229c.234-1.12 1.547-6.23 5.382-6.23C19.602 2 22 3.552 22 7.004c0 3.907-3.627 8.47-10 12.629-6.373-4.16-10-8.722-10-12.63C2 3.52 4.369 1.999 6.577 1.999c3.923 0 5.145 5.126 5.423 6.23zM0 7.003C0 11.07 3.06 16.483 12 22c8.94-5.516 12-10.93 12-14.997 0-7.962-9.648-9.028-12-3.737C9.662-1.996 0-1.004 0 7.003z"/></svg><svg viewBox="0 0 6 9" id="left-arrow" xmlns="http://www.w3.org/2000/svg"><path d="M.229 7.888a.591.591 0 00-.025.912.809.809 0 001.039.022L5.79 4.96a.61.61 0 00-.025-.942L1.243.178A.809.809 0 00.203.2a.591.591 0 00.024.912l3.486 3.01a.5.5 0 010 .757L.229 7.888z"/></svg></svg>